<svg xmlns="http://www.w3.org/2000/svg" xmlns:xlink="http://www.w3.org/1999/xlink" aria-hidden="true" role="img" width="1em" height="1em" preserveAspectRatio="xMidYMid meet" viewBox="0 0 24 24"><g fill="none" stroke="white" stroke-linecap="round" stroke-width="2"><path stroke-linejoin="round" d="M15.5 4H18a2 2 0 0 1 2 2v13a2 2 0 0 1-2 2H6a2 2 0 0 1-2-2V6a2 2 0 0 1 2-2h2.5"/><path stroke-linejoin="round" d="M8.621 3.515A2 2 0 0 1 10.561 2h2.877a2 2 0 0 1 1.94 1.515L16 6H8l.621-2.485Z"/><path d="M9 12h6m-6 4h6"/></g></svg>