<svg width="24" height="22" viewBox="0 0 24 22" fill="none" xmlns="http://www.w3.org/2000/svg">
<path d="M11.754 0.375C10.3198 0.375 9.04378 1.275 8.56949 2.625H1.59065V4.875H3.79271L0.461385 12.75C-0.0693687 15 1.59065 16.125 4.4138 16.125C7.23696 16.125 8.99861 15 8.36622 12.75L5.0349 4.875H8.5582C8.93085 5.83125 9.66488 6.5625 10.6247 6.93375V19.5H0.461385V21.75H23.0466V19.5H12.8833V6.9225C13.8431 6.5625 14.5772 5.83125 14.9385 4.875H18.4731L15.1418 12.75C14.611 15 16.2711 16.125 19.0942 16.125C21.9174 16.125 23.679 15 23.0466 12.75L19.7153 4.875H21.9174V2.625H14.9498C14.4642 1.275 13.1882 0.375 11.754 0.375ZM11.754 2.625C12.0535 2.625 12.3407 2.74353 12.5525 2.9545C12.7643 3.16548 12.8833 3.45163 12.8833 3.75C12.8833 4.04837 12.7643 4.33452 12.5525 4.5455C12.3407 4.75647 12.0535 4.875 11.754 4.875C11.4545 4.875 11.1673 4.75647 10.9555 4.5455C10.7437 4.33452 10.6247 4.04837 10.6247 3.75C10.6247 3.45163 10.7437 3.16548 10.9555 2.9545C11.1673 2.74353 11.4545 2.625 11.754 2.625ZM4.4138 8.53125L6.1077 12.75H2.71991L4.4138 8.53125ZM19.0942 8.53125L20.7881 12.75H17.4003L19.0942 8.53125Z" fill="white"/>
</svg>
